<svg width="8" height="12" viewBox="0 0 8 12" fill="none" xmlns="http://www.w3.org/2000/svg">
<path fill-rule="evenodd" clip-rule="evenodd" d="M4 0.400002C4.21216 0.400047 4.41561 0.484362 4.5656 0.634402L6.9656 3.0344C7.11133 3.18528 7.19196 3.38737 7.19014 3.59712C7.18832 3.80688 7.10418 4.00753 6.95585 4.15586C6.80753 4.30418 6.60688 4.38832 6.39712 4.39014C6.18736 4.39196 5.98528 4.31133 5.8344 4.1656L4 2.3312L2.1656 4.1656C2.01472 4.31133 1.81264 4.39196 1.60288 4.39014C1.39312 4.38832 1.19247 4.30418 1.04415 4.15586C0.895819 4.00753 0.811683 3.80688 0.809861 3.59712C0.808038 3.38737 0.888674 3.18528 1.0344 3.0344L3.4344 0.634402C3.58439 0.484362 3.78784 0.400047 4 0.400002ZM1.0344 7.8344C1.18442 7.68442 1.38787 7.60017 1.6 7.60017C1.81213 7.60017 2.01558 7.68442 2.1656 7.8344L4 9.6688L5.8344 7.8344C5.98528 7.68868 6.18736 7.60804 6.39712 7.60986C6.60688 7.61169 6.80753 7.69582 6.95585 7.84415C7.10418 7.99247 7.18832 8.19312 7.19014 8.40288C7.19196 8.61264 7.11133 8.81472 6.9656 8.9656L4.5656 11.3656C4.41558 11.5156 4.21213 11.5998 4 11.5998C3.78787 11.5998 3.58442 11.5156 3.4344 11.3656L1.0344 8.9656C0.884423 8.81558 0.800171 8.61213 0.800171 8.4C0.800171 8.18787 0.884423 7.98442 1.0344 7.8344Z" fill="#64748B"/>
</svg>
