<svg width="30" height="30" viewBox="0 0 30 30" fill="none" xmlns="http://www.w3.org/2000/svg">
<path d="M7 1.5C3.96243 1.5 1.5 3.96243 1.5 7V23C1.5 26.0376 3.96243 28.5 7 28.5H23C26.0376 28.5 28.5 26.0376 28.5 23V7C28.5 3.96243 26.0376 1.5 23 1.5H7Z" fill="#1E3A8A"/>
<path d="M11.592 20V10.13H18.102V11.544H13.398V14.344H17.78V15.758H13.398V20H11.592Z" fill="white"/>
<path d="M7 1.5C3.96243 1.5 1.5 3.96243 1.5 7V23C1.5 26.0376 3.96243 28.5 7 28.5H23C26.0376 28.5 28.5 26.0376 28.5 23V7C28.5 3.96243 26.0376 1.5 23 1.5H7Z" stroke="white" stroke-width="3"/>
</svg>
