<svg width="16" height="16" viewBox="0 0 16 16" fill="none" xmlns="http://www.w3.org/2000/svg">
<path d="M13.8333 0.5H2.16667C1.25 0.5 0.5 1.25 0.5 2.16667V13.8333C0.5 14.75 1.25 15.5 2.16667 15.5H13.8333C14.75 15.5 15.5 14.75 15.5 13.8333V2.16667C15.5 1.25 14.75 0.5 13.8333 0.5ZM13.8333 13.8333H2.16667V2.16667H13.8333V13.8333Z" fill="#475569"/>
<path d="M7.375 4.43333H3.20833V5.68333H7.375V4.43333Z" fill="#475569"/>
<path d="M13 11.125H8.83333V12.375H13V11.125Z" fill="#475569"/>
<path d="M13 9.04167H8.83333V10.2917H13V9.04167Z" fill="#475569"/>
<path d="M4.66667 13H5.91667V11.3333H7.58333V10.0833H5.91667V8.41667H4.66667V10.0833H3V11.3333H4.66667V13Z" fill="#475569"/>
<path d="M9.74167 7.125L10.9167 5.95L12.0917 7.125L12.975 6.24167L11.8 5.05833L12.975 3.88333L12.0917 3L10.9167 4.175L9.74167 3L8.85833 3.88333L10.0333 5.05833L8.85833 6.24167L9.74167 7.125Z" fill="#475569"/>
</svg>
