<svg width="16" height="4" viewBox="0 0 16 4" fill="none" xmlns="http://www.w3.org/2000/svg">
<path d="M2.16665 2H2.17498M7.99998 2H8.00831M13.8333 2H13.8416M2.99998 2C2.99998 2.22101 2.91218 2.43297 2.7559 2.58925C2.59962 2.74553 2.38766 2.83333 2.16665 2.83333C1.94563 2.83333 1.73367 2.74553 1.57739 2.58925C1.42111 2.43297 1.33331 2.22101 1.33331 2C1.33331 1.77898 1.42111 1.56702 1.57739 1.41074C1.73367 1.25446 1.94563 1.16666 2.16665 1.16666C2.38766 1.16666 2.59962 1.25446 2.7559 1.41074C2.91218 1.56702 2.99998 1.77898 2.99998 2ZM8.83331 2C8.83331 2.22101 8.74552 2.43297 8.58923 2.58925C8.43295 2.74553 8.22099 2.83333 7.99998 2.83333C7.77897 2.83333 7.567 2.74553 7.41072 2.58925C7.25444 2.43297 7.16665 2.22101 7.16665 2C7.16665 1.77898 7.25444 1.56702 7.41072 1.41074C7.567 1.25446 7.77897 1.16666 7.99998 1.16666C8.22099 1.16666 8.43295 1.25446 8.58923 1.41074C8.74552 1.56702 8.83331 1.77898 8.83331 2ZM14.6666 2C14.6666 2.22101 14.5788 2.43297 14.4226 2.58925C14.2663 2.74553 14.0543 2.83333 13.8333 2.83333C13.6123 2.83333 13.4003 2.74553 13.2441 2.58925C13.0878 2.43297 13 2.22101 13 2C13 1.77898 13.0878 1.56702 13.2441 1.41074C13.4003 1.25446 13.6123 1.16666 13.8333 1.16666C14.0543 1.16666 14.2663 1.25446 14.4226 1.41074C14.5788 1.56702 14.6666 1.77898 14.6666 2Z" stroke="#334155" stroke-width="2" stroke-linecap="round" stroke-linejoin="round"/>
</svg>
