<svg width="18" height="18" viewBox="0 0 18 18" fill="none" xmlns="http://www.w3.org/2000/svg">
<path d="M2.54167 4H4.20833V6.5H12.5417V4H14.2083V8.16666H15.875V4C15.875 3.08333 15.125 2.33333 14.2083 2.33333H10.725C10.375 1.36666 9.45833 0.666664 8.375 0.666664C7.29167 0.666664 6.375 1.36666 6.025 2.33333H2.54167C1.625 2.33333 0.875 3.08333 0.875 4V15.6667C0.875 16.5833 1.625 17.3333 2.54167 17.3333H7.54167V15.6667H2.54167V4ZM8.375 2.33333C8.83333 2.33333 9.20833 2.70833 9.20833 3.16666C9.20833 3.625 8.83333 4 8.375 4C7.91667 4 7.54167 3.625 7.54167 3.16666C7.54167 2.70833 7.91667 2.33333 8.375 2.33333Z" fill="#64748B"/>
<path d="M15.875 9.41666L11.3 14L8.79167 11.5L7.54167 12.75L11.3 16.5L17.125 10.6667L15.875 9.41666Z" fill="#000"/>
</svg>
