<svg width="32" height="33" viewBox="0 0 32 33" fill="none" xmlns="http://www.w3.org/2000/svg">
<path d="M28.6753 0.5H1.66233C0.748026 0.5 0 1.26189 0 2.19313V5.24073C0 6.17197 0.748026 6.93386 1.66233 6.93386H28.5922C29.5065 6.93386 30.2545 6.17197 30.2545 5.24073V2.19313C30.3377 1.26189 29.5896 0.5 28.6753 0.5ZM28.6753 17.5159H1.66233C0.748026 17.5159 0 18.2778 0 19.209V22.2566C0 23.1878 0.748026 23.9497 1.66233 23.9497H28.5922C29.5065 23.9497 30.2545 23.1878 30.2545 22.2566V19.209C30.3377 18.2778 29.5896 17.5159 28.6753 17.5159ZM16.8727 26.0661H1.66233C0.748026 26.0661 0 26.828 0 27.7593V30.8069C0 31.7381 0.748026 32.5 1.66233 32.5H16.8727C17.787 32.5 18.5351 31.7381 18.5351 30.8069V27.7593C18.5351 26.828 17.787 26.0661 16.8727 26.0661ZM30.3377 9.05027H1.66233C0.748026 9.05027 0 9.81216 0 10.7433V13.791C0 14.7222 0.748026 15.4841 1.66233 15.4841H30.3377C31.252 15.4841 32 14.7222 32 13.791V10.7433C32 9.81216 31.252 9.05027 30.3377 9.05027Z" fill="#0BA4DB"/>
</svg>
