<svg width="16" height="18" viewBox="0 0 16 18" fill="none" xmlns="http://www.w3.org/2000/svg">
<path d="M13.8333 2.33333H10.35C10 1.36667 9.08333 0.666668 8 0.666668C6.91667 0.666668 6 1.36667 5.65 2.33333H2.16667C1.25 2.33333 0.5 3.08333 0.5 4V15.6667C0.5 16.5833 1.25 17.3333 2.16667 17.3333H13.8333C14.75 17.3333 15.5 16.5833 15.5 15.6667V4C15.5 3.08333 14.75 2.33333 13.8333 2.33333ZM8 2.125C8.34167 2.125 8.625 2.40833 8.625 2.75C8.625 3.09167 8.34167 3.375 8 3.375C7.65833 3.375 7.375 3.09167 7.375 2.75C7.375 2.40833 7.65833 2.125 8 2.125ZM13.8333 15.6667H2.16667V4H13.8333V15.6667Z" fill="white"/>
<path d="M10.5667 9.025L8.8 7.25833L3.83333 12.2167V14H5.58333L10.5667 9.025Z" fill="white"/>
<path d="M12.0417 7.55834C12.2083 7.39167 12.2083 7.13334 12.0417 6.96667L10.8667 5.79167C10.7 5.625 10.4417 5.625 10.275 5.79167L9.39167 6.675L11.1583 8.44167L12.0417 7.55834Z" fill="white"/>
</svg>
