<svg width="22" height="26" viewBox="0 0 22 26" fill="none" xmlns="http://www.w3.org/2000/svg">
<path d="M11 26C12.4666 26 13.6666 24.8 13.6666 23.3333H8.33331C8.33331 24.8 9.53331 26 11 26ZM19 18V11.3333C19 7.24 16.8266 3.81333 13 2.90667V2C13 0.893333 12.1066 0 11 0C9.89331 0 8.99998 0.893333 8.99998 2V2.90667C5.18665 3.81333 2.99998 7.22667 2.99998 11.3333V18L0.333313 20.6667V22H21.6666V20.6667L19 18ZM16.3333 19.3333H5.66665V11.3333C5.66665 8.02667 7.67998 5.33333 11 5.33333C14.32 5.33333 16.3333 8.02667 16.3333 11.3333V19.3333Z" fill="#64748B"/>
</svg>
