<svg width="16" height="16" viewBox="0 0 16 16" fill="none" xmlns="http://www.w3.org/2000/svg">
<path d="M1.33331 2.16667C1.33331 1.94566 1.42111 1.73369 1.57739 1.57741C1.73367 1.42113 1.94563 1.33334 2.16665 1.33334H13.8333C14.0543 1.33334 14.2663 1.42113 14.4226 1.57741C14.5788 1.73369 14.6666 1.94566 14.6666 2.16667V3.83334C14.6666 4.05435 14.5788 4.26631 14.4226 4.42259C14.2663 4.57887 14.0543 4.66667 13.8333 4.66667H2.16665C1.94563 4.66667 1.73367 4.57887 1.57739 4.42259C1.42111 4.26631 1.33331 4.05435 1.33331 3.83334V2.16667ZM1.33331 8.83334C1.33331 8.61232 1.42111 8.40036 1.57739 8.24408C1.73367 8.0878 1.94563 8 2.16665 8H7.16665C7.38766 8 7.59962 8.0878 7.7559 8.24408C7.91218 8.40036 7.99998 8.61232 7.99998 8.83334V13.8333C7.99998 14.0543 7.91218 14.2663 7.7559 14.4226C7.59962 14.5789 7.38766 14.6667 7.16665 14.6667H2.16665C1.94563 14.6667 1.73367 14.5789 1.57739 14.4226C1.42111 14.2663 1.33331 14.0543 1.33331 13.8333V8.83334ZM11.3333 8.83334C11.3333 8.61232 11.4211 8.40036 11.5774 8.24408C11.7337 8.0878 11.9456 8 12.1666 8H13.8333C14.0543 8 14.2663 8.0878 14.4226 8.24408C14.5788 8.40036 14.6666 8.61232 14.6666 8.83334V13.8333C14.6666 14.0543 14.5788 14.2663 14.4226 14.4226C14.2663 14.5789 14.0543 14.6667 13.8333 14.6667H12.1666C11.9456 14.6667 11.7337 14.5789 11.5774 14.4226C11.4211 14.2663 11.3333 14.0543 11.3333 13.8333V8.83334Z" stroke="#334155" stroke-width="1.2" stroke-linecap="round" stroke-linejoin="round"/>
</svg>
