<svg width="20" height="14" viewBox="0 0 20 14" fill="none" xmlns="http://www.w3.org/2000/svg">
<path d="M13.8917 7.94166C15.0333 8.71666 15.8333 9.76666 15.8333 11.1667V13.6667H19.1667V11.1667C19.1667 9.34999 16.1917 8.27499 13.8917 7.94166Z" fill="#475569"/>
<path d="M12.5 6.99999C14.3417 6.99999 15.8333 5.50833 15.8333 3.66666C15.8333 1.82499 14.3417 0.333328 12.5 0.333328C12.1083 0.333328 11.7417 0.416661 11.3917 0.533328C12.0833 1.39166 12.5 2.48333 12.5 3.66666C12.5 4.84999 12.0833 5.94166 11.3917 6.79999C11.7417 6.91666 12.1083 6.99999 12.5 6.99999Z" fill="#475569"/>
<path d="M7.50001 6.99999C9.34168 6.99999 10.8333 5.50833 10.8333 3.66666C10.8333 1.82499 9.34168 0.333328 7.50001 0.333328C5.65834 0.333328 4.16668 1.82499 4.16668 3.66666C4.16668 5.50833 5.65834 6.99999 7.50001 6.99999ZM7.50001 1.99999C8.41668 1.99999 9.16668 2.74999 9.16668 3.66666C9.16668 4.58333 8.41668 5.33333 7.50001 5.33333C6.58334 5.33333 5.83334 4.58333 5.83334 3.66666C5.83334 2.74999 6.58334 1.99999 7.50001 1.99999Z" fill="#475569"/>
<path d="M7.50001 7.83333C5.27501 7.83333 0.833344 8.95 0.833344 11.1667V13.6667H14.1667V11.1667C14.1667 8.95 9.72501 7.83333 7.50001 7.83333ZM12.5 12H2.50001V11.175C2.66668 10.575 5.25001 9.49999 7.50001 9.49999C9.75001 9.49999 12.3333 10.575 12.5 11.1667V12Z" fill="#475569"/>
</svg>
