<svg width="12" height="12" viewBox="0 0 12 12" fill="none" xmlns="http://www.w3.org/2000/svg">
<path fill-rule="evenodd" clip-rule="evenodd" d="M6 0.400002C6.21217 0.400002 6.41566 0.484287 6.56568 0.634316C6.71571 0.784345 6.8 0.987828 6.8 1.2V5.2H10.8C11.0122 5.2 11.2157 5.28429 11.3657 5.43432C11.5157 5.58435 11.6 5.78783 11.6 6C11.6 6.21217 11.5157 6.41566 11.3657 6.56569C11.2157 6.71572 11.0122 6.8 10.8 6.8H6.8V10.8C6.8 11.0122 6.71571 11.2157 6.56568 11.3657C6.41566 11.5157 6.21217 11.6 6 11.6C5.78783 11.6 5.58434 11.5157 5.43431 11.3657C5.28429 11.2157 5.2 11.0122 5.2 10.8V6.8H1.2C0.987826 6.8 0.784343 6.71572 0.634314 6.56569C0.484285 6.41566 0.4 6.21217 0.4 6C0.4 5.78783 0.484285 5.58435 0.634314 5.43432C0.784343 5.28429 0.987826 5.2 1.2 5.2H5.2V1.2C5.2 0.987828 5.28429 0.784345 5.43431 0.634316C5.58434 0.484287 5.78783 0.400002 6 0.400002Z" fill="#64748B"/>
</svg>
