<svg width="18" height="18" viewBox="0 0 18 18" fill="none" xmlns="http://www.w3.org/2000/svg">
<path d="M15.1935 9.81667C15.2269 9.55 15.2519 9.28334 15.2519 9.00001C15.2519 8.71667 15.2269 8.45001 15.1935 8.18334L16.9519 6.80834C17.1102 6.68334 17.1518 6.45834 17.0518 6.275L15.3852 3.39167C15.3102 3.25834 15.1685 3.18334 15.0185 3.18334C14.9685 3.18334 14.9185 3.19167 14.8768 3.20834L12.8018 4.04167C12.3685 3.70834 11.9018 3.43334 11.3935 3.22501L11.0768 1.01667C11.0518 0.816672 10.8769 0.666672 10.6685 0.666672H7.33518C7.12685 0.666672 6.95185 0.816672 6.92685 1.01667L6.61018 3.22501C6.10185 3.43334 5.63518 3.71667 5.20185 4.04167L3.12685 3.20834C3.07685 3.19167 3.02685 3.18334 2.97685 3.18334C2.83518 3.18334 2.69352 3.25834 2.61852 3.39167L0.95185 6.275C0.843516 6.45834 0.893517 6.68334 1.05185 6.80834L2.81018 8.18334C2.77685 8.45001 2.75185 8.72501 2.75185 9.00001C2.75185 9.27501 2.77685 9.55 2.81018 9.81667L1.05185 11.1917C0.893517 11.3167 0.85185 11.5417 0.95185 11.725L2.61852 14.6083C2.69352 14.7417 2.83518 14.8167 2.98518 14.8167C3.03518 14.8167 3.08518 14.8083 3.12685 14.7917L5.20185 13.9583C5.63518 14.2917 6.10185 14.5667 6.61018 14.775L6.92685 16.9833C6.95185 17.1833 7.12685 17.3333 7.33518 17.3333H10.6685C10.8769 17.3333 11.0518 17.1833 11.0768 16.9833L11.3935 14.775C11.9018 14.5667 12.3685 14.2833 12.8018 13.9583L14.8768 14.7917C14.9268 14.8083 14.9768 14.8167 15.0268 14.8167C15.1685 14.8167 15.3102 14.7417 15.3852 14.6083L17.0518 11.725C17.1518 11.5417 17.1102 11.3167 16.9519 11.1917L15.1935 9.81667ZM13.5435 8.39167C13.5769 8.65001 13.5852 8.82501 13.5852 9.00001C13.5852 9.17501 13.5685 9.35834 13.5435 9.60834L13.4268 10.55L14.1685 11.1333L15.0685 11.8333L14.4852 12.8417L13.4268 12.4167L12.5602 12.0667L11.8102 12.6333C11.4518 12.9 11.1102 13.1 10.7685 13.2417L9.88518 13.6L9.75185 14.5417L9.58518 15.6667H8.41852L8.12685 13.6L7.24352 13.2417C6.88518 13.0917 6.55185 12.9 6.21852 12.65L5.46018 12.0667L4.57685 12.425L3.51852 12.85L2.93518 11.8417L3.83518 11.1417L4.57685 10.5583L4.46018 9.61667C4.43518 9.35834 4.41852 9.16667 4.41852 9.00001C4.41852 8.83334 4.43518 8.64167 4.46018 8.39167L4.57685 7.45001L3.83518 6.86667L2.93518 6.16667L3.51852 5.15834L4.57685 5.58334L5.44352 5.93334L6.19352 5.36667C6.55185 5.10001 6.89352 4.90001 7.23518 4.75834L8.11852 4.40001L8.25185 3.45834L8.41852 2.33334H9.57685L9.86852 4.40001L10.7519 4.75834C11.1102 4.90834 11.4435 5.10001 11.7768 5.35001L12.5352 5.93334L13.4185 5.57501L14.4768 5.15001L15.0602 6.15834L14.1685 6.86667L13.4268 7.45001L13.5435 8.39167ZM9.00185 5.66667C7.16018 5.66667 5.66852 7.15834 5.66852 9.00001C5.66852 10.8417 7.16018 12.3333 9.00185 12.3333C10.8435 12.3333 12.3352 10.8417 12.3352 9.00001C12.3352 7.15834 10.8435 5.66667 9.00185 5.66667ZM9.00185 10.6667C8.08518 10.6667 7.33518 9.91667 7.33518 9.00001C7.33518 8.08334 8.08518 7.33334 9.00185 7.33334C9.91852 7.33334 10.6685 8.08334 10.6685 9.00001C10.6685 9.91667 9.91852 10.6667 9.00185 10.6667Z" fill="#475569"/>
</svg>
