<svg width="18" height="18" viewBox="0 0 18 18" fill="none" xmlns="http://www.w3.org/2000/svg">
<path d="M9.42499 7.325C9.42499 5.95 8.29999 4.825 6.92499 4.825C5.54999 4.825 4.42499 5.95 4.42499 7.325C4.42499 8.7 5.54999 9.825 6.92499 9.825C8.29999 9.825 9.42499 8.7 9.42499 7.325ZM6.92499 8.15833C6.46666 8.15833 6.09166 7.78333 6.09166 7.325C6.09166 6.86667 6.46666 6.49167 6.92499 6.49167C7.38332 6.49167 7.75832 6.86667 7.75832 7.325C7.75832 7.78333 7.38332 8.15833 6.92499 8.15833ZM12.3417 9.825C13.2667 9.825 14.0083 9.08333 14.0083 8.15833C14.0083 7.23333 13.2667 6.49167 12.3417 6.49167C11.4167 6.49167 10.6667 7.23333 10.675 8.15833C10.675 9.08333 11.4167 9.825 12.3417 9.825ZM8.99999 0.666667C4.39999 0.666667 0.666656 4.4 0.666656 9C0.666656 13.6 4.39999 17.3333 8.99999 17.3333C13.6 17.3333 17.3333 13.6 17.3333 9C17.3333 4.4 13.6 0.666667 8.99999 0.666667ZM3.87499 13.2583C4.44166 12.8083 5.76666 12.3333 6.92499 12.3333C6.98332 12.3333 7.04999 12.3417 7.11666 12.3417C7.31666 11.8083 7.67499 11.2667 8.19999 10.7917C7.73332 10.7083 7.29166 10.6583 6.92499 10.6583C5.84166 10.6583 4.09999 11.0333 2.98332 11.85C2.56666 10.9833 2.33332 10.0167 2.33332 8.99167C2.33332 5.31667 5.32499 2.325 8.99999 2.325C12.675 2.325 15.6667 5.31667 15.6667 8.99167C15.6667 9.99167 15.4417 10.9417 15.0417 11.8C14.2083 11.3083 13.075 11.075 12.3417 11.075C11.075 11.075 8.59166 11.75 8.59166 13.325V15.6417C6.69999 15.5333 5.01666 14.6333 3.87499 13.2583Z" fill="#475569"/>
</svg>
