<svg width="14" height="14" viewBox="0 0 14 14" fill="none" xmlns="http://www.w3.org/2000/svg">
<path d="M13.6667 2.45334L6.06 10.0667L3.23333 7.24L4.17333 6.3L6.06 8.18667L12.7267 1.52L13.6667 2.45334ZM12.1933 5.81334C12.28 6.19334 12.3333 6.59334 12.3333 7C12.3333 9.94667 9.94666 12.3333 7 12.3333C4.05333 12.3333 1.66666 9.94667 1.66666 7C1.66666 4.05334 4.05333 1.66667 7 1.66667C8.05333 1.66667 9.02666 1.97334 9.85333 2.5L10.8133 1.54C9.73333 0.780003 8.42 0.333336 7 0.333336C3.31999 0.333336 0.333328 3.32 0.333328 7C0.333328 10.68 3.31999 13.6667 7 13.6667C10.68 13.6667 13.6667 10.68 13.6667 7C13.6667 6.20667 13.52 5.44667 13.2667 4.74L12.1933 5.81334Z" fill="#2563EB"/>
</svg>
