<svg width="16" height="12" viewBox="0 0 16 12" fill="none" xmlns="http://www.w3.org/2000/svg">
<path d="M7.2 2.8C7.2 3.43652 6.94715 4.04697 6.49706 4.49706C6.04697 4.94714 5.43652 5.2 4.8 5.2C4.16348 5.2 3.55303 4.94714 3.10295 4.49706C2.65286 4.04697 2.4 3.43652 2.4 2.8C2.4 2.16348 2.65286 1.55303 3.10295 1.10294C3.55303 0.652856 4.16348 0.4 4.8 0.4C5.43652 0.4 6.04697 0.652856 6.49706 1.10294C6.94715 1.55303 7.2 2.16348 7.2 2.8ZM13.6 2.8C13.6 3.11517 13.5379 3.42726 13.4173 3.71844C13.2967 4.00962 13.1199 4.2742 12.8971 4.49706C12.6742 4.71992 12.4096 4.8967 12.1184 5.01731C11.8273 5.13792 11.5152 5.2 11.2 5.2C10.8848 5.2 10.5727 5.13792 10.2816 5.01731C9.99038 4.8967 9.72581 4.71992 9.50295 4.49706C9.28009 4.2742 9.1033 4.00962 8.98269 3.71844C8.86208 3.42726 8.8 3.11517 8.8 2.8C8.8 2.16348 9.05286 1.55303 9.50295 1.10294C9.95303 0.652856 10.5635 0.4 11.2 0.4C11.8365 0.4 12.447 0.652856 12.8971 1.10294C13.3471 1.55303 13.6 2.16348 13.6 2.8ZM10.344 11.6C10.3808 11.3384 10.4 11.072 10.4 10.8C10.4019 9.54309 9.97899 8.32241 9.2 7.336C9.80807 6.98493 10.4978 6.80011 11.2 6.8001C11.9021 6.8001 12.5919 6.98491 13.2 7.33597C13.808 7.68704 14.313 8.19197 14.6641 8.80004C15.0151 9.4081 15.2 10.0979 15.2 10.8V11.6H10.344ZM4.8 6.8C5.86087 6.8 6.87828 7.22143 7.62843 7.97157C8.37858 8.72172 8.8 9.73913 8.8 10.8V11.6H0.800003V10.8C0.800003 9.73913 1.22143 8.72172 1.97158 7.97157C2.72172 7.22143 3.73914 6.8 4.8 6.8Z" fill="#64748B"/>
</svg>
