<svg width="4" height="14" viewBox="0 0 4 14" fill="none" xmlns="http://www.w3.org/2000/svg">
<path d="M2.00001 2.33333V2.34M2.00001 7V7.00667M2.00001 11.6667V11.6733M2.00001 3C1.8232 3 1.65363 2.92976 1.52861 2.80474C1.40358 2.67971 1.33334 2.51014 1.33334 2.33333C1.33334 2.15652 1.40358 1.98695 1.52861 1.86193C1.65363 1.7369 1.8232 1.66667 2.00001 1.66667C2.17682 1.66667 2.34639 1.7369 2.47141 1.86193C2.59644 1.98695 2.66668 2.15652 2.66668 2.33333C2.66668 2.51014 2.59644 2.67971 2.47141 2.80474C2.34639 2.92976 2.17682 3 2.00001 3ZM2.00001 7.66667C1.8232 7.66667 1.65363 7.59643 1.52861 7.4714C1.40358 7.34638 1.33334 7.17681 1.33334 7C1.33334 6.82319 1.40358 6.65362 1.52861 6.5286C1.65363 6.40357 1.8232 6.33333 2.00001 6.33333C2.17682 6.33333 2.34639 6.40357 2.47141 6.5286C2.59644 6.65362 2.66668 6.82319 2.66668 7C2.66668 7.17681 2.59644 7.34638 2.47141 7.4714C2.34639 7.59643 2.17682 7.66667 2.00001 7.66667ZM2.00001 12.3333C1.8232 12.3333 1.65363 12.2631 1.52861 12.1381C1.40358 12.013 1.33334 11.8435 1.33334 11.6667C1.33334 11.4899 1.40358 11.3203 1.52861 11.1953C1.65363 11.0702 1.8232 11 2.00001 11C2.17682 11 2.34639 11.0702 2.47141 11.1953C2.59644 11.3203 2.66668 11.4899 2.66668 11.6667C2.66668 11.8435 2.59644 12.013 2.47141 12.1381C2.34639 12.2631 2.17682 12.3333 2.00001 12.3333Z" stroke="#475569" stroke-width="2" stroke-linecap="round" stroke-linejoin="round"/>
</svg>
